<svg width="159" height="167" viewBox="0 0 159 167" fill="none" xmlns="http://www.w3.org/2000/svg">
<g filter="url(#filter0_d)">
<path d="M93.6337 0.420433C94.672 0.194112 95.7347 0.594687 96.7123 1.01123C115.422 8.98311 130.021 26.0127 135.04 45.7211C140.059 65.4296 135.383 87.3674 122.765 103.317C110.147 119.267 89.874 128.865 69.5396 128.516C69.1263 130.878 68.7129 133.24 68.2996 135.602C68.299 133.6 68.267 131.481 67.2169 129.777C66.1667 128.073 63.7059 127.075 62.0975 128.266C59.8999 130.891 61.5983 135.647 64.9612 136.286C64.3034 137.828 61.7671 137.348 60.9144 135.903C60.0618 134.459 60.2554 132.661 60.124 130.989C59.9925 129.317 59.221 127.395 57.5763 127.067C52.6939 126.093 47.9052 124.651 43.2972 122.766C40.315 121.546 36.8777 119.15 37.5766 116.005C38.0928 113.682 40.8417 112.438 43.201 112.75C45.5603 113.062 47.5955 114.501 49.5238 115.896C50.5296 112.421 51.5354 108.945 52.5412 105.469C49.3755 105.616 48.4868 100.978 45.8194 99.2663C33.6156 91.437 25.4802 77.5982 24.5743 63.1271C23.6683 48.6561 30.0143 33.9107 41.1464 24.6205C52.2785 15.3303 67.9214 11.725 81.9968 15.2055C83.6669 13.1511 86.7889 12.4396 89.1842 13.5677C91.4237 12.4249 91.3093 9.25504 91.028 6.75658C90.7467 4.25811 91.1772 0.955911 93.6337 0.420433ZM54.1371 117.005C53.2154 115.984 54.12 116.588 54.12 116.588L54.1371 117.12V117.364C54.1371 117.364 51.9023 116.499 50.829 116.148C69.1858 122.349 90.5479 118.742 105.851 106.857C121.153 94.9727 129.936 75.1682 128.473 55.8479C127.009 36.5275 115.342 18.2725 98.4232 8.82926C98.0197 8.60404 97.5677 8.37613 97.1161 8.47415C96.5361 8.60005 96.2066 9.19794 95.9518 9.73398C95.1025 11.5203 94.2533 13.3067 93.4041 15.0931C95.4047 16.2678 96.4736 18.8338 95.8987 21.0815C107.348 28.3379 115.32 40.8395 117.071 54.2809C118.821 67.7224 114.317 81.8489 105.108 91.7957C95.8994 101.742 82.1614 107.321 68.6251 106.61C65.4528 106.443 62.0358 106.004 59.3022 107.622C56.1415 109.493 55.0061 113.436 54.1371 117.005Z" fill="white"/>
<path d="M49.5045 33.6304C49.247 33.6339 49.1356 33.9528 49.0943 34.207C48.9373 35.1743 48.7802 36.1416 48.6231 37.1089C49.8323 37.0841 51.1952 36.9905 51.982 36.0719C50.8987 35.8894 50.0889 34.7187 50.3003 33.6406C50.6856 34.2358 51.2063 34.7426 51.8116 35.1117C52.113 35.2956 52.4613 35.4753 52.5791 35.8081C52.774 36.3584 52.2261 36.8672 51.748 37.2023C51.27 37.5374 50.7353 38.0715 50.9611 38.6099C50.519 38.1001 49.8716 37.7736 49.1989 37.721C48.8138 37.6909 48.388 37.7358 48.08 37.5027C47.5835 37.127 47.753 36.3454 48.0273 35.7865C48.3016 35.2276 48.6356 34.5649 48.3278 34.0238C48.0974 33.6187 47.5581 33.4188 47.4367 32.9689C47.2598 32.313 48.0721 31.8554 48.7304 31.6873C49.1884 31.5704 49.6706 31.4666 50.1295 31.5805C50.5883 31.6944 51.0111 32.0925 50.9941 32.565C50.7758 33.1768 50.1541 33.6215 49.5045 33.6304ZM50.5783 32.3779C49.921 32.0059 49.0445 32.0651 48.4433 32.5222C48.2458 32.6723 48.0657 32.935 48.1854 33.1522C49.0422 33.2068 49.916 32.9241 50.5783 32.3779Z" fill="#B1B1B1"/>
<path d="M97.0119 68.1631C96.7227 68.0485 96.466 67.8533 96.2783 67.6052C96.9767 67.3001 97.5495 66.7177 97.8429 66.0143C98.0295 65.5669 98.6976 65.5589 99.0991 65.8306C99.5006 66.1023 99.7512 66.546 100.117 66.8647C100.482 67.1834 101.091 67.3433 101.425 66.9927C101.816 66.5839 102.574 66.9134 102.772 67.4427C102.971 67.9719 102.796 68.5601 102.621 69.0976C102.52 69.4098 102.409 69.7369 102.166 69.9578C101.923 70.1787 101.503 70.242 101.279 70.0025C100.397 69.0623 98.6366 69.2148 97.9297 70.2927C97.2229 69.8669 96.8361 68.9693 97.0119 68.1631ZM98.2875 66.7125C97.6563 67.3504 97.4423 68.3671 97.7626 69.2055C97.8364 69.3986 98.0838 69.6041 98.2115 69.4416C98.7981 68.695 99.867 68.3684 100.771 68.6597C100.942 68.7148 101.094 68.4888 101.045 68.316C100.996 68.1432 100.834 68.0308 100.684 67.933C100.038 67.5136 99.393 67.0942 98.7476 66.6747C98.6725 66.626 98.5896 66.5752 98.5006 66.5839C98.4163 66.5923 98.3471 66.6522 98.2875 66.7125ZM101.763 69.7541C102.027 69.149 102.205 68.5069 102.292 67.8527C102.311 67.7078 102.24 67.4906 102.105 67.5463C101.306 67.9158 101.114 69.1605 101.763 69.7541Z" fill="#B1B1B1"/>
<path d="M76.91 68.5269C75.7107 67.6048 74.1914 66.8656 73.6914 65.4379C72.841 63.0102 70.1434 61.7413 68.8082 59.5427C67.6807 57.6863 67.6466 55.3615 67.9833 53.2158C68.8269 47.84 72.1503 42.6122 77.2403 40.6878C79.6691 39.7695 82.3201 39.6415 84.9166 39.6682C87.1512 39.6911 89.4611 39.8405 91.4518 40.8559C93.4425 41.8713 95.0409 43.9612 94.8313 46.186C94.747 47.0814 94.3833 47.9401 94.3666 48.8393C94.3207 51.3028 96.734 53.0013 98.8678 54.2333C100.926 55.4216 102.983 56.6098 105.041 57.798C106.103 58.4111 106.248 59.8578 106.271 61.0838C106.332 64.4367 106.393 67.7896 106.454 71.1424C106.466 71.8125 106.477 72.4929 106.304 73.1404C106.117 73.8392 105.726 74.4629 105.34 75.0747C101.494 81.1725 97.3203 87.571 90.8304 90.7106C89.4097 91.3978 87.9115 91.9088 86.4177 92.418C85.0218 92.8938 83.6259 93.3696 82.23 93.8454C81.1988 94.197 80.1357 94.5531 79.048 94.4913C77.9603 94.4296 76.8282 93.8479 76.4462 92.8275C76.2244 92.2352 76.2777 91.5781 76.3704 90.9525C76.686 88.8222 77.4276 86.756 78.5387 84.9112C80.0892 82.3371 81.021 79.3354 80.8407 76.3358C80.6603 73.3362 79.2922 70.3586 76.91 68.5269ZM72.132 61.4188C75.0217 64.1066 77.5894 67.1403 79.7627 70.4345C80.5113 71.5692 81.2202 72.7499 81.6194 74.0493C82.3935 76.5689 81.9334 79.3176 81.0388 81.797C80.1442 84.2764 78.8328 86.5841 77.8396 89.0256C77.2896 90.3776 76.9492 92.187 78.1037 93.0801C79.0535 93.8147 80.4174 93.4334 81.5452 93.0212C83.2369 92.4029 84.9287 91.7846 86.6204 91.1662C88.0243 90.6532 89.432 90.1384 90.7649 89.462C96.8559 86.3708 100.756 80.2946 104.363 74.4942C104.69 73.9691 105.02 73.4352 105.19 72.8405C105.366 72.222 105.36 71.5682 105.352 70.9251C105.319 68.0888 105.285 65.2525 105.252 62.4161C105.24 61.4182 105.219 60.3799 104.767 59.4898C103.963 57.9023 102.085 57.2613 100.47 56.513C98.0473 55.3902 95.8797 53.7205 94.1757 51.6643C93.7364 51.1342 93.3162 50.5542 93.181 49.8791C92.9407 48.6792 93.6425 47.5 93.7467 46.2807C93.9175 44.284 92.4108 42.4458 90.5938 41.6005C88.7768 40.7553 86.7059 40.6936 84.702 40.6776C82.8022 40.6625 80.8784 40.6781 79.0402 41.1579C73.5661 42.5868 69.8202 48.0444 69.0166 53.6446C68.7887 55.2332 68.7718 56.9234 69.4819 58.3626C70.0821 59.5792 71.1386 60.4949 72.132 61.4188Z" fill="#B1B1B1"/>
<path d="M45.7778 146.094C47.913 147.392 50.4498 147.823 52.9235 148.177C56.8584 148.74 60.8121 149.172 64.7758 149.472C69.8819 149.859 75.3173 149.956 79.7586 147.407C80.0868 147.218 80.4216 147.002 80.6011 146.668C81.1459 145.656 79.9022 144.561 78.7709 144.359C77.6395 144.156 76.3318 144.272 75.505 143.474C77.1702 142.647 79.2658 142.76 80.8317 143.763C82.3975 144.766 83.3778 146.621 83.3233 148.48C83.2786 150.004 82.5938 151.471 82.6647 152.993C82.7513 154.851 80.8577 156.14 79.1294 156.826C73.6359 159.008 67.5589 159.064 61.6489 158.977C56.4126 158.9 50.9739 158.685 46.3207 156.282C45.1505 155.678 44.0072 154.899 43.3602 153.752C42.7794 152.722 42.6578 151.505 42.5483 150.328C42.328 147.961 42.189 145.314 43.714 143.49C45.1679 141.75 47.6516 141.355 49.9125 141.192C51.0044 141.113 51.3883 139.664 51.1889 138.587C50.9895 137.511 50.5143 136.364 50.9828 135.375C51.9182 133.4 55.1674 134.371 56.8374 132.961C57.3917 132.493 58.2826 133.326 58.0672 134.019C57.8519 134.711 57.0378 135.035 56.3125 135.049C55.5872 135.063 54.8651 134.863 54.1427 134.929C53.4203 134.995 52.6409 135.457 52.5798 136.18C59.2381 138.851 66.7562 139.329 73.6989 137.521C72.5039 136.058 70.5899 135.213 68.7037 135.315C68.7343 134.849 69.2548 134.586 69.7136 134.501C71.792 134.117 73.9317 135.571 74.7278 137.529C75.5239 139.487 75.1507 141.776 74.1582 143.642C73.2557 143.361 73.327 142.086 73.4728 141.152C73.6185 140.218 73.2345 138.869 72.3065 139.049C65.9647 140.277 59.3008 139.8 53.1986 137.681C52.7329 137.519 52.4367 138.174 52.3799 138.664C52.1674 140.495 52.0588 142.627 53.4122 143.879C54.0766 144.493 54.9802 144.766 55.8576 144.988C60.6261 146.192 65.6413 146.409 70.4961 145.622C71.1757 145.512 72.0412 145.466 72.373 146.069C68.6947 147.737 64.456 147.357 60.4384 146.944C58.5394 146.749 56.6026 146.545 54.8613 145.762C53.1633 144.999 51.7265 143.719 49.9906 143.047C48.2547 142.375 45.9288 142.55 44.9821 144.152C44.8777 144.329 44.7925 144.523 44.7778 144.727C44.735 145.321 45.2693 145.785 45.7778 146.094ZM81.5224 153.423C82.2956 151.694 81.5836 149.711 81.3552 147.831C76.0803 151.434 69.1434 151.123 62.7906 150.456C59.1074 150.07 55.4318 149.611 51.7666 149.08C49.3899 148.736 46.8933 148.308 45.0353 146.786C44.5365 146.377 43.9819 147.234 43.8993 147.873C43.6592 149.732 43.4505 151.755 44.4164 153.362C45.4756 155.124 47.6259 155.858 49.6221 156.35C58.4071 158.516 67.7052 158.571 76.5153 156.509C78.497 156.046 80.6916 155.281 81.5224 153.423Z" fill="#B1B1B1"/>
<path d="M92.3793 0.0654528C93.4176 -0.160869 94.4803 0.239707 95.458 0.656247C114.168 8.62812 128.766 25.6577 133.785 45.3662C138.804 65.0746 134.129 87.0124 121.511 102.962C108.893 118.912 88.6197 128.51 68.2852 128.161C67.8719 130.523 67.4585 132.885 67.0452 135.247C67.0447 133.245 67.0126 131.126 65.9625 129.422C64.9123 127.718 62.4515 126.72 60.8431 127.911C58.6455 130.536 60.3439 135.292 63.7068 135.931C63.049 137.473 60.5127 136.993 59.66 135.548C58.8074 134.104 59.001 132.306 58.8696 130.634C58.7382 128.962 57.9666 127.04 56.3219 126.712C51.4395 125.738 46.6508 124.296 42.0428 122.411C39.0606 121.191 35.6233 118.795 36.3222 115.65C36.8384 113.327 39.5873 112.083 41.9466 112.395C44.3059 112.707 46.3411 114.146 48.2694 115.541C49.2752 112.066 50.281 108.59 51.2868 105.114C48.1211 105.261 47.2324 100.623 44.565 98.9113C32.3612 91.082 24.2258 77.2432 23.3199 62.7721C22.4139 48.3011 28.7599 33.5557 39.892 24.2655C51.0241 14.9753 66.667 11.37 80.7424 14.8505C82.4125 12.7961 85.5345 12.0847 87.9298 13.2127C90.1693 12.0699 90.0549 8.90006 89.7736 6.4016C89.4923 3.90313 89.9228 0.60093 92.3793 0.0654528ZM111.998 75.7676C117.485 61.3493 114.905 44.1502 105.429 31.9761C104.743 31.0941 103.968 30.1979 102.908 29.8436C100.513 29.0433 98.1182 28.2429 95.7235 27.4426C95.9835 28.4524 95.1757 29.4891 94.2005 29.8583C93.2252 30.2276 92.1416 30.1024 91.1071 29.9707C89.2645 29.7362 87.3624 29.4774 85.7711 28.5192C84.1799 27.561 82.9736 25.7058 83.3588 23.8887C83.6666 22.4369 81.8874 21.5065 80.4578 21.108C76.7259 20.0677 72.994 19.0274 69.2621 17.9871C68.4485 17.7603 67.5783 17.4968 67.0584 16.8312C66.5385 16.1656 66.641 14.9715 67.4411 14.7008C61.187 14.868 54.9757 16.4744 49.4248 19.3604C53.8501 21.6541 58.3597 24.0096 61.8241 27.5932C64.5413 30.4038 66.584 34.1713 66.2545 38.0667C65.969 41.442 63.9108 44.4944 61.2299 46.5648C58.5491 48.6353 55.2907 49.826 52.0056 50.6517C47.1587 51.87 41.2869 52.0617 37.9521 48.3394C36.982 47.2566 35.2483 47.5373 33.8422 47.907C31.4697 48.5308 29.0972 49.1546 26.7246 49.7784C26.1723 49.9236 25.5036 50.2058 25.4848 50.7767C25.4278 52.508 26.7108 54.1908 28.3954 54.5942C30.0801 54.9976 31.9862 54.0785 32.7196 52.5092C33.1614 51.5637 34.4932 51.4161 35.4691 51.7863C36.4449 52.1564 37.2524 52.8822 38.2231 53.2656C39.7615 53.8731 41.5676 53.5685 43.0556 54.2908C45.5374 55.4955 45.9603 58.8759 45.4869 61.5938C44.6082 66.6384 41.748 71.3106 37.6549 74.3874C34.969 76.4065 35.4352 80.5913 36.7869 83.6676C38.1386 86.7439 40.1486 89.8371 39.6793 93.1643C37.8361 89.3103 36.2753 85.3212 35.0136 81.2397C34.3175 78.9882 33.9192 76.0657 35.8385 74.6983C39.9166 71.7929 42.9425 67.4422 44.2473 62.6081C45.0294 59.7105 44.6406 55.7537 41.7684 54.8827C40.6552 54.5451 39.424 54.7958 38.3184 54.434C37.3926 54.131 36.6508 53.4299 35.7619 53.0315C34.8729 52.6331 33.6213 52.6672 33.1522 53.521C31.5538 56.4298 26.6481 56.5488 24.9106 53.721C22.8929 68.1281 28.35 83.3785 39.0499 93.2348C49.7498 103.091 65.396 107.28 79.5893 104.089C93.7827 100.898 106.13 90.4142 111.581 76.9264C110.066 76.2513 109.208 74.5774 108.987 72.934C108.765 71.2905 109.061 69.6283 109.225 67.9781C109.554 64.6594 109.347 61.2881 108.615 58.0346C108.418 57.1597 108.031 56.1411 107.153 55.9598C104.517 55.4155 102.015 54.2306 99.9239 52.5358C98.3354 51.2484 97.002 48.6966 98.5478 47.3582C99.268 46.7346 98.2458 45.7076 97.8736 44.8307C97.0877 42.9793 99.4943 41.4588 101.418 40.8719C103.674 40.1838 105.929 39.4957 108.185 38.8076C108.428 38.7333 108.686 38.6584 108.933 38.7188C109.652 38.8942 109.602 40.0552 108.997 40.4815C108.392 40.9079 107.585 40.8389 106.845 40.8213C103.902 40.7514 100.946 41.8283 98.7383 43.7753C99.7204 44.8615 99.9732 46.5488 99.3525 47.8751C98.6053 49.4719 99.6659 51.4093 101.132 52.388C102.599 53.3668 104.388 53.7006 106.033 54.3327C107.679 54.9648 109.338 56.0879 109.736 57.8053C110.544 61.2846 110.719 64.9094 110.252 68.4505C109.9 71.1231 109.57 74.5963 111.998 75.7676ZM52.8828 116.65C51.961 115.629 52.1888 114.01 52.7634 112.76C53.3381 111.51 54.2064 110.366 54.4496 109.012C54.6928 107.658 53.9591 105.969 52.5875 105.863C51.5832 109.173 50.5789 112.483 49.5746 115.793C67.9314 121.994 89.2935 118.387 104.596 106.502C119.899 94.6177 128.682 74.8133 127.218 55.4929C125.754 36.1725 114.088 17.9175 97.1689 8.47428C96.7653 8.24906 96.3133 8.02115 95.8617 8.11917C95.2817 8.24507 94.9522 8.84296 94.6974 9.379C93.8482 11.1654 92.9989 12.9517 92.1497 14.7381C94.1503 15.9128 95.2192 18.4788 94.6443 20.7265C106.093 27.9829 114.066 40.4845 115.817 53.9259C117.567 67.3674 113.062 81.4939 103.854 91.4407C94.6451 101.387 80.907 106.966 67.3707 106.255C64.1984 106.088 60.7814 105.649 58.0478 107.267C54.8871 109.138 53.7517 113.082 52.8828 116.65ZM96.102 2.22185C95.0581 1.75634 93.9224 1.30902 92.8012 1.53135C91.68 1.75368 90.6841 2.94169 91.0925 4.00923C110.748 12.0337 125.421 31.1536 128.087 52.2159C130.754 73.2782 121.308 95.4513 104.272 108.121C87.2364 120.79 63.283 123.455 43.8789 114.841C41.9944 114.004 39.4214 113.221 38.1782 114.866C37.4128 115.879 37.6692 117.392 38.4409 118.4C39.2127 119.408 40.3822 120.02 41.5282 120.566C62.2279 130.43 88.1593 128.27 106.942 115.118C125.725 101.965 136.621 78.3351 134.43 55.51C132.238 32.685 117.044 11.5604 96.102 2.22185ZM26.3023 48.8633C28.7176 48.2039 31.1329 47.5445 33.5482 46.885C35.2141 46.4302 37.277 46.0814 38.4274 47.3692C40.2853 49.4487 43.1623 50.4001 45.9503 50.4529C48.7384 50.5058 51.4764 49.7547 54.1286 48.8932C57.7435 47.7189 61.5944 46.0622 63.3246 42.678C64.3415 40.689 65.3859 38.5763 65.2478 36.3466C65.1206 34.2915 64.0053 32.4467 62.9213 30.6962C62.0104 29.2252 61.0761 27.7269 59.7452 26.6214C57.4744 24.7351 54.2667 24.1729 52.1918 22.0732C50.9924 20.8594 49.0871 20.5636 47.423 20.9412C45.7589 21.3188 44.2879 22.2734 42.9148 23.2865C35.0425 29.0948 29.109 37.4859 26.2568 46.844C26.0526 47.5137 25.8823 48.3031 26.3023 48.8633ZM94.8602 27.0293C95.6312 25.9211 97.3719 26.3071 98.5204 27.0166C99.6689 27.7261 100.906 28.6867 102.214 28.3515C95.0715 21.1072 85.5039 16.2967 75.4294 14.8843C72.8214 14.5187 69.8312 14.4958 67.9565 16.3453C72.6477 17.7524 77.3389 19.1595 82.0301 20.5665C82.6473 20.7516 83.2988 20.9583 83.7215 21.4446C84.4645 22.2996 84.1991 23.5989 84.4055 24.7126C84.7031 26.3181 86.0516 27.5677 87.5589 28.1954C89.0662 28.8232 90.7305 28.935 92.36 29.0389C92.9264 29.075 93.5577 29.0905 93.9855 28.7175C94.4674 28.2972 94.495 27.5542 94.8602 27.0293ZM93.4358 19.9191C93.8741 18.9604 93.4792 17.7837 92.7512 17.0214C92.0232 16.2591 91.0245 15.8251 90.0461 15.4328C88.3306 14.7449 86.5507 14.1171 84.7031 14.0674C84.2399 14.055 83.7304 14.0976 83.398 14.4205C83.0656 14.7433 83.0963 15.4298 83.5398 15.564C86.9978 16.6099 90.3286 18.0758 93.4358 19.9191ZM59.7268 105.156C56.3641 104.529 53.091 103.423 50.037 101.882C49.7844 101.755 49.5154 101.62 49.2338 101.647C48.9521 101.674 48.6741 101.937 48.7454 102.211C48.7937 102.396 48.9733 102.512 49.1386 102.609C50.8943 103.641 52.6648 104.68 54.5911 105.341C56.5174 106.003 58.6344 106.268 60.5962 105.721C60.5304 105.358 60.0896 105.223 59.7268 105.156ZM93.6813 6.55443C93.4173 6.16778 92.7986 6.19577 92.4326 6.48776C92.0666 6.77975 91.8905 7.24261 91.7304 7.68257C91.061 9.52207 90.3915 11.3616 89.7221 13.2011C89.6606 13.3701 89.5981 13.5465 89.618 13.7253C89.6758 14.2444 90.4128 14.4325 90.8597 14.1621C91.3066 13.8917 91.5189 13.3667 91.7022 12.8776C92.3455 11.162 92.9887 9.44635 93.6319 7.73073C93.7755 7.34788 93.9119 6.8921 93.6813 6.55443Z" fill="#B1B1B1"/>
</g>
<defs>
<filter id="filter0_d" x="-4" y="0" width="167" height="167" filterUnits="userSpaceOnUse" color-interpolation-filters="sRGB">
<feFlood flood-opacity="0" result="BackgroundImageFix"/>
<feColorMatrix in="SourceAlpha" type="matrix" values="0 0 0 0 0 0 0 0 0 0 0 0 0 0 0 0 0 0 127 0"/>
<feOffset dy="4"/>
<feGaussianBlur stdDeviation="2"/>
<feColorMatrix type="matrix" values="0 0 0 0 0 0 0 0 0 0 0 0 0 0 0 0 0 0 0.25 0"/>
<feBlend mode="normal" in2="BackgroundImageFix" result="effect1_dropShadow"/>
<feBlend mode="normal" in="SourceGraphic" in2="effect1_dropShadow" result="shape"/>
</filter>
</defs>
</svg>
