<svg width="212" height="131" viewBox="0 0 212 131" fill="none" xmlns="http://www.w3.org/2000/svg">
<path d="M14.8082 67.8864C16.8492 67.8864 18.7654 68.186 20.5565 68.7852C22.3476 69.3469 23.8889 70.2269 25.1801 71.4252C28.0543 74.0465 29.4914 77.6788 29.4914 82.3222C29.4914 86.8908 28.0543 90.4857 25.1801 93.1069C22.5976 95.5035 19.1402 96.7018 14.8082 96.7018C10.4761 96.7018 6.97713 95.5035 4.31124 93.1069C1.43708 90.5231 0 86.9282 0 82.3222C0 77.6414 1.43708 74.009 4.31124 71.4252C6.93547 69.066 10.4345 67.8864 14.8082 67.8864ZM22.1185 82.2661C22.1185 79.3826 21.4937 77.2294 20.2441 75.8065C18.9945 74.346 17.245 73.6158 14.9956 73.6158C12.7879 73.6158 10.976 74.346 9.55971 75.8065C8.14346 77.2294 7.43533 79.3826 7.43533 82.2661C7.43533 85.1495 8.06015 87.3214 9.30978 88.7818C10.6011 90.2048 12.3506 90.9163 14.5582 90.9163C16.7659 90.9163 18.5779 90.2048 19.9942 88.7818C21.4104 87.3214 22.1185 85.1495 22.1185 82.2661Z" fill="#242D52"/>
<path d="M45.6371 74.009C47.4699 70.0771 50.2191 68.1111 53.8847 68.1111C54.5928 68.1111 55.4884 68.2422 56.5714 68.5043L56.4464 75.1324C55.2801 74.9077 54.1346 74.7954 53.0099 74.7954C48.0947 74.7954 45.6371 77.8473 45.6371 83.9512V95.9155H38.2642V68.5605H45.6371V74.009Z" fill="#242D52"/>
<path d="M84.0643 91.7027C82.1899 95.0355 79.3157 96.7018 75.4418 96.7018C71.568 96.7018 68.3189 95.3725 65.6947 92.7137C62.9871 89.9427 61.6334 86.4227 61.6334 82.1537C61.6334 77.8848 62.9247 74.4209 65.5072 71.7622C68.0482 69.1784 71.2139 67.8864 75.0045 67.8864C78.795 67.8864 81.6484 69.2532 83.5645 71.9869V57.3826H90.9998V95.9155H84.9391L84.0643 91.7027ZM76.3791 73.8405C74.2963 73.8405 72.5469 74.6082 71.1306 76.1435C69.756 77.6414 69.0687 79.6635 69.0687 82.2099C69.0687 84.7563 69.7768 86.8159 71.1931 88.3886C72.6093 89.924 74.4005 90.6916 76.5665 90.6916C78.3577 90.6916 79.9614 90.055 81.3776 88.7818C82.8355 87.4712 83.5645 85.8235 83.5645 83.8388V80.3001C83.4812 78.3529 82.7522 76.7614 81.3776 75.5256C80.128 74.4022 78.4618 73.8405 76.3791 73.8405Z" fill="#242D52"/>
<path d="M123.819 71.8745C124.86 73.0728 125.631 74.4584 126.131 76.0311C126.672 77.6039 126.943 79.0456 126.943 80.3563C126.943 81.6669 126.86 82.8465 126.693 83.895H107.074C107.157 86.1044 107.761 87.9018 108.886 89.2874C110.01 90.6729 111.718 91.3657 114.009 91.3657C117.05 91.3657 118.862 90.1674 119.445 87.7708H126.88C126.381 90.5044 124.985 92.6576 122.694 94.2304C120.32 95.878 117.425 96.7018 114.009 96.7018C110.01 96.7018 106.657 95.3912 103.95 92.7699C101.159 90.0363 99.7634 86.535 99.7634 82.2661C99.7634 77.8848 101.159 74.3648 103.95 71.706C106.616 69.1596 109.969 67.8864 114.009 67.8864C118.216 67.8864 121.486 69.2158 123.819 71.8745ZM114.072 73.1665C111.989 73.1665 110.364 73.7843 109.198 75.0201C108.032 76.2184 107.344 77.7724 107.136 79.6822H120.07C120.07 76.7239 119.029 74.7392 116.946 73.7282C116.154 73.3537 115.196 73.1665 114.072 73.1665Z" fill="#242D52"/>
<path d="M135.77 57.3826H143.143V95.9155H135.77V57.3826Z" fill="#242D52"/>
<path d="M138.207 47.7567C139.441 47.7567 140.442 46.857 140.442 45.7471C140.442 44.6373 139.441 43.7375 138.207 43.7375C136.972 43.7375 135.971 44.6373 135.971 45.7471C135.971 46.857 136.972 47.7567 138.207 47.7567Z" fill="#F25F3A"/>
<path d="M138.207 41.2078C139.935 41.2078 141.336 39.9482 141.336 38.3944C141.336 36.8407 139.935 35.5811 138.207 35.5811C136.478 35.5811 135.077 36.8407 135.077 38.3944C135.077 39.9482 136.478 41.2078 138.207 41.2078Z" fill="#F25F3A"/>
<path d="M138.207 33.0513C140.429 33.0513 142.23 31.4318 142.23 29.4341C142.23 27.4364 140.429 25.8169 138.207 25.8169C135.985 25.8169 134.183 27.4364 134.183 29.4341C134.183 31.4318 135.985 33.0513 138.207 33.0513Z" fill="#F25F3A"/>
<path d="M138.207 23.2636C140.981 23.2636 143.23 21.2419 143.23 18.748C143.23 16.2541 140.981 14.2324 138.207 14.2324C135.433 14.2324 133.184 16.2541 133.184 18.748C133.184 21.2419 135.433 23.2636 138.207 23.2636Z" fill="#F25F3A"/>
<path d="M138.207 10.7807C141.518 10.7807 144.203 8.36738 144.203 5.39036C144.203 2.41335 141.518 0 138.207 0C134.895 0 132.211 2.41335 132.211 5.39036C132.211 8.36738 134.895 10.7807 138.207 10.7807Z" fill="#F25F3A"/>
<path d="M117.194 58.2064C118.429 58.2064 119.43 57.3067 119.43 56.1968C119.43 55.087 118.429 54.1873 117.194 54.1873C115.96 54.1873 114.959 55.087 114.959 56.1968C114.959 57.3067 115.96 58.2064 117.194 58.2064Z" fill="#F25F3A"/>
<path d="M111.409 53.8092C113.137 53.8092 114.538 52.5496 114.538 50.9958C114.538 49.442 113.137 48.1824 111.409 48.1824C109.68 48.1824 108.279 49.442 108.279 50.9958C108.279 52.5496 109.68 53.8092 111.409 53.8092Z" fill="#F25F3A"/>
<path d="M104.361 48.2769C106.583 48.2769 108.384 46.6574 108.384 44.6597C108.384 42.662 106.583 41.0425 104.361 41.0425C102.139 41.0425 100.337 42.662 100.337 44.6597C100.337 46.6574 102.139 48.2769 104.361 48.2769Z" fill="#F25F3A"/>
<path d="M95.9715 41.6335C98.7456 41.6335 100.994 39.6118 100.994 37.1179C100.994 34.624 98.7456 32.6023 95.9715 32.6023C93.1974 32.6023 90.9485 34.624 90.9485 37.1179C90.9485 39.6118 93.1974 41.6335 95.9715 41.6335Z" fill="#F25F3A"/>
<path d="M85.4523 33.0515C88.7638 33.0515 91.4484 30.6381 91.4484 27.6611C91.4484 24.6841 88.7638 22.2708 85.4523 22.2708C82.1408 22.2708 79.4563 24.6841 79.4563 27.6611C79.4563 30.6381 82.1408 33.0515 85.4523 33.0515Z" fill="#F25F3A"/>
<path d="M159.193 58.7267C160.427 58.7267 161.428 57.8269 161.428 56.7171C161.428 55.6072 160.427 54.7075 159.193 54.7075C157.958 54.7075 156.958 55.6072 156.958 56.7171C156.958 57.8269 157.958 58.7267 159.193 58.7267Z" fill="#F25F3A"/>
<path d="M164.978 54.3292C166.707 54.3292 168.108 53.0696 168.108 51.5158C168.108 49.962 166.707 48.7024 164.978 48.7024C163.25 48.7024 161.849 49.962 161.849 51.5158C161.849 53.0696 163.25 54.3292 164.978 54.3292Z" fill="#F25F3A"/>
<path d="M172.027 48.7733C174.249 48.7733 176.05 47.1538 176.05 45.156C176.05 43.1583 174.249 41.5388 172.027 41.5388C169.804 41.5388 168.003 43.1583 168.003 45.156C168.003 47.1538 169.804 48.7733 172.027 48.7733Z" fill="#F25F3A"/>
<path d="M180.442 42.1299C183.216 42.1299 185.465 40.1081 185.465 37.6142C185.465 35.1203 183.216 33.0986 180.442 33.0986C177.668 33.0986 175.419 35.1203 175.419 37.6142C175.419 40.1081 177.668 42.1299 180.442 42.1299Z" fill="#F25F3A"/>
<path d="M190.935 33.5715C194.247 33.5715 196.931 31.1581 196.931 28.1811C196.931 25.2041 194.247 22.7908 190.935 22.7908C187.623 22.7908 184.939 25.2041 184.939 28.1811C184.939 31.1581 187.623 33.5715 190.935 33.5715Z" fill="#F25F3A"/>
<path d="M161.113 81.1627C162.347 81.1627 163.348 80.263 163.348 79.1531C163.348 78.0433 162.347 77.1436 161.113 77.1436C159.878 77.1436 158.877 78.0433 158.877 79.1531C158.877 80.263 159.878 81.1627 161.113 81.1627Z" fill="#F25F3A"/>
<path d="M169.291 81.9666C171.02 81.9666 172.421 80.707 172.421 79.1532C172.421 77.5994 171.02 76.3398 169.291 76.3398C167.563 76.3398 166.162 77.5994 166.162 79.1532C166.162 80.707 167.563 81.9666 169.291 81.9666Z" fill="#F25F3A"/>
<path d="M179.285 82.7703C181.507 82.7703 183.309 81.1508 183.309 79.1531C183.309 77.1554 181.507 75.5359 179.285 75.5359C177.063 75.5359 175.261 77.1554 175.261 79.1531C175.261 81.1508 177.063 82.7703 179.285 82.7703Z" fill="#F25F3A"/>
<path d="M191.146 83.6689C193.92 83.6689 196.169 81.6472 196.169 79.1533C196.169 76.6594 193.92 74.6377 191.146 74.6377C188.371 74.6377 186.123 76.6594 186.123 79.1533C186.123 81.6472 188.371 83.6689 191.146 83.6689Z" fill="#F25F3A"/>
<path d="M206.004 84.5437C209.315 84.5437 212 82.1303 212 79.1533C212 76.1763 209.315 73.7629 206.004 73.7629C202.692 73.7629 200.008 76.1763 200.008 79.1533C200.008 82.1303 202.692 84.5437 206.004 84.5437Z" fill="#F25F3A"/>
<path d="M158.299 99.0833C159.533 99.0833 160.534 98.1836 160.534 97.0738C160.534 95.9639 159.533 95.0642 158.299 95.0642C157.064 95.0642 156.063 95.9639 156.063 97.0738C156.063 98.1836 157.064 99.0833 158.299 99.0833Z" fill="#F25F3A"/>
<path d="M164.084 105.088C165.813 105.088 167.214 103.829 167.214 102.275C167.214 100.721 165.813 99.4617 164.084 99.4617C162.356 99.4617 160.955 100.721 160.955 102.275C160.955 103.829 162.356 105.088 164.084 105.088Z" fill="#F25F3A"/>
<path d="M171.133 112.228C173.355 112.228 175.156 110.609 175.156 108.611C175.156 106.613 173.355 104.994 171.133 104.994C168.91 104.994 167.109 106.613 167.109 108.611C167.109 110.609 168.91 112.228 171.133 112.228Z" fill="#F25F3A"/>
<path d="M179.548 120.668C182.322 120.668 184.571 118.647 184.571 116.153C184.571 113.659 182.322 111.637 179.548 111.637C176.774 111.637 174.525 113.659 174.525 116.153C174.525 118.647 176.774 120.668 179.548 120.668Z" fill="#F25F3A"/>
<path d="M190.041 131C193.352 131 196.037 128.587 196.037 125.61C196.037 122.633 193.352 120.219 190.041 120.219C186.729 120.219 184.045 122.633 184.045 125.61C184.045 128.587 186.729 131 190.041 131Z" fill="#F25F3A"/>
</svg>
