<svg width="212" height="131" viewBox="0 0 212 131" fill="none" xmlns="http://www.w3.org/2000/svg">
<path d="M14.8082 67.8862C16.8492 67.8862 18.7654 68.1858 20.5565 68.7849C22.3476 69.3466 23.8889 70.2266 25.1801 71.4249C28.0543 74.0462 29.4914 77.6786 29.4914 82.322C29.4914 86.8905 28.0543 90.4854 25.1801 93.1067C22.5976 95.5033 19.1402 96.7016 14.8082 96.7016C10.4761 96.7016 6.97713 95.5033 4.31124 93.1067C1.43708 90.5229 0 86.928 0 82.322C0 77.6411 1.43708 74.0088 4.31124 71.4249C6.93547 69.0658 10.4345 67.8862 14.8082 67.8862ZM22.1185 82.2658C22.1185 79.3824 21.4937 77.2292 20.2441 75.8062C18.9945 74.3458 17.245 73.6156 14.9956 73.6156C12.7879 73.6156 10.976 74.3458 9.55971 75.8062C8.14346 77.2292 7.43533 79.3824 7.43533 82.2658C7.43533 85.1492 8.06015 87.3211 9.30978 88.7816C10.6011 90.2046 12.3506 90.9161 14.5582 90.9161C16.7659 90.9161 18.5779 90.2046 19.9942 88.7816C21.4104 87.3211 22.1185 85.1492 22.1185 82.2658Z" fill="white"/>
<path d="M45.6371 74.0088C47.4699 70.0768 50.2191 68.1109 53.8847 68.1109C54.5928 68.1109 55.4884 68.2419 56.5714 68.5041L56.4464 75.1322C55.2801 74.9075 54.1346 74.7951 53.0099 74.7951C48.0947 74.7951 45.6371 77.8471 45.6371 83.9509V95.9152H38.2642V68.5602H45.6371V74.0088Z" fill="white"/>
<path d="M84.0643 91.7024C82.1899 95.0352 79.3157 96.7016 75.4418 96.7016C71.568 96.7016 68.3189 95.3722 65.6947 92.7135C62.9871 89.9424 61.6334 86.4224 61.6334 82.1535C61.6334 77.8845 62.9247 74.4207 65.5072 71.7619C68.0482 69.1781 71.2139 67.8862 75.0045 67.8862C78.795 67.8862 81.6484 69.253 83.5645 71.9866V57.3823H90.9998V95.9152H84.9391L84.0643 91.7024ZM76.3791 73.8403C74.2963 73.8403 72.5469 74.6079 71.1306 76.1432C69.756 77.6411 69.0687 79.6632 69.0687 82.2096C69.0687 84.756 69.7768 86.8156 71.1931 88.3884C72.6093 89.9237 74.4005 90.6914 76.5665 90.6914C78.3577 90.6914 79.9614 90.0548 81.3776 88.7816C82.8355 87.4709 83.5645 85.8233 83.5645 83.8386V80.2998C83.4812 78.3526 82.7522 76.7611 81.3776 75.5254C80.128 74.402 78.4618 73.8403 76.3791 73.8403Z" fill="white"/>
<path d="M123.819 71.8743C124.86 73.0726 125.631 74.4581 126.131 76.0309C126.672 77.6037 126.943 79.0454 126.943 80.356C126.943 81.6667 126.86 82.8462 126.693 83.8948H107.074C107.157 86.1041 107.761 87.9016 108.886 89.2871C110.01 90.6726 111.718 91.3654 114.009 91.3654C117.05 91.3654 118.862 90.1671 119.445 87.7705H126.88C126.381 90.5041 124.985 92.6573 122.694 94.2301C120.32 95.8778 117.425 96.7016 114.009 96.7016C110.01 96.7016 106.657 95.391 103.95 92.7697C101.159 90.0361 99.7634 86.5348 99.7634 82.2658C99.7634 77.8845 101.159 74.3645 103.95 71.7058C106.616 69.1594 109.969 67.8862 114.009 67.8862C118.216 67.8862 121.486 69.2156 123.819 71.8743ZM114.072 73.1662C111.989 73.1662 110.364 73.7841 109.198 75.0198C108.032 76.2181 107.344 77.7722 107.136 79.682H120.07C120.07 76.7237 119.029 74.739 116.946 73.7279C116.154 73.3534 115.196 73.1662 114.072 73.1662Z" fill="white"/>
<path d="M135.77 57.3823H143.143V95.9152H135.77V57.3823Z" fill="white"/>
<path d="M138.207 47.7569C139.441 47.7569 140.442 46.8572 140.442 45.7474C140.442 44.6375 139.441 43.7378 138.207 43.7378C136.972 43.7378 135.971 44.6375 135.971 45.7474C135.971 46.8572 136.972 47.7569 138.207 47.7569Z" fill="#F25F3A"/>
<path d="M138.207 41.2078C139.935 41.2078 141.336 39.9482 141.336 38.3944C141.336 36.8407 139.935 35.5811 138.207 35.5811C136.478 35.5811 135.077 36.8407 135.077 38.3944C135.077 39.9482 136.478 41.2078 138.207 41.2078Z" fill="#F25F3A"/>
<path d="M138.207 33.0513C140.429 33.0513 142.23 31.4318 142.23 29.4341C142.23 27.4364 140.429 25.8169 138.207 25.8169C135.985 25.8169 134.183 27.4364 134.183 29.4341C134.183 31.4318 135.985 33.0513 138.207 33.0513Z" fill="#F25F3A"/>
<path d="M138.207 23.2636C140.981 23.2636 143.23 21.2419 143.23 18.748C143.23 16.2541 140.981 14.2324 138.207 14.2324C135.433 14.2324 133.184 16.2541 133.184 18.748C133.184 21.2419 135.433 23.2636 138.207 23.2636Z" fill="#F25F3A"/>
<path d="M138.207 10.7807C141.518 10.7807 144.203 8.36738 144.203 5.39036C144.203 2.41335 141.518 0 138.207 0C134.895 0 132.211 2.41335 132.211 5.39036C132.211 8.36738 134.895 10.7807 138.207 10.7807Z" fill="#F25F3A"/>
<path d="M117.194 58.2066C118.429 58.2066 119.43 57.3069 119.43 56.1971C119.43 55.0872 118.429 54.1875 117.194 54.1875C115.96 54.1875 114.959 55.0872 114.959 56.1971C114.959 57.3069 115.96 58.2066 117.194 58.2066Z" fill="#F25F3A"/>
<path d="M111.409 53.8089C113.137 53.8089 114.538 52.5493 114.538 50.9955C114.538 49.4417 113.137 48.1821 111.409 48.1821C109.68 48.1821 108.279 49.4417 108.279 50.9955C108.279 52.5493 109.68 53.8089 111.409 53.8089Z" fill="#F25F3A"/>
<path d="M104.361 48.2769C106.583 48.2769 108.384 46.6574 108.384 44.6597C108.384 42.662 106.583 41.0425 104.361 41.0425C102.139 41.0425 100.337 42.662 100.337 44.6597C100.337 46.6574 102.139 48.2769 104.361 48.2769Z" fill="#F25F3A"/>
<path d="M95.9715 41.6333C98.7456 41.6333 100.994 39.6116 100.994 37.1177C100.994 34.6238 98.7456 32.6021 95.9715 32.6021C93.1974 32.6021 90.9485 34.6238 90.9485 37.1177C90.9485 39.6116 93.1974 41.6333 95.9715 41.6333Z" fill="#F25F3A"/>
<path d="M85.4523 33.0512C88.7638 33.0512 91.4484 30.6379 91.4484 27.6609C91.4484 24.6839 88.7638 22.2705 85.4523 22.2705C82.1408 22.2705 79.4563 24.6839 79.4563 27.6609C79.4563 30.6379 82.1408 33.0512 85.4523 33.0512Z" fill="#F25F3A"/>
<path d="M159.193 58.7267C160.427 58.7267 161.428 57.8269 161.428 56.7171C161.428 55.6072 160.427 54.7075 159.193 54.7075C157.958 54.7075 156.958 55.6072 156.958 56.7171C156.958 57.8269 157.958 58.7267 159.193 58.7267Z" fill="#F25F3A"/>
<path d="M164.978 54.3294C166.707 54.3294 168.108 53.0698 168.108 51.516C168.108 49.9622 166.707 48.7026 164.978 48.7026C163.25 48.7026 161.849 49.9622 161.849 51.516C161.849 53.0698 163.25 54.3294 164.978 54.3294Z" fill="#F25F3A"/>
<path d="M172.027 48.7735C174.249 48.7735 176.05 47.154 176.05 45.1563C176.05 43.1585 174.249 41.5391 172.027 41.5391C169.804 41.5391 168.003 43.1585 168.003 45.1563C168.003 47.154 169.804 48.7735 172.027 48.7735Z" fill="#F25F3A"/>
<path d="M180.442 42.1299C183.216 42.1299 185.465 40.1081 185.465 37.6142C185.465 35.1203 183.216 33.0986 180.442 33.0986C177.668 33.0986 175.419 35.1203 175.419 37.6142C175.419 40.1081 177.668 42.1299 180.442 42.1299Z" fill="#F25F3A"/>
<path d="M190.935 33.5717C194.247 33.5717 196.931 31.1584 196.931 28.1814C196.931 25.2044 194.247 22.791 190.935 22.791C187.623 22.791 184.939 25.2044 184.939 28.1814C184.939 31.1584 187.623 33.5717 190.935 33.5717Z" fill="#F25F3A"/>
<path d="M161.113 81.1627C162.347 81.1627 163.348 80.263 163.348 79.1531C163.348 78.0433 162.347 77.1436 161.113 77.1436C159.878 77.1436 158.877 78.0433 158.877 79.1531C158.877 80.263 159.878 81.1627 161.113 81.1627Z" fill="#F25F3A"/>
<path d="M169.292 81.9666C171.02 81.9666 172.421 80.707 172.421 79.1532C172.421 77.5994 171.02 76.3398 169.292 76.3398C167.563 76.3398 166.162 77.5994 166.162 79.1532C166.162 80.707 167.563 81.9666 169.292 81.9666Z" fill="#F25F3A"/>
<path d="M179.285 82.7706C181.507 82.7706 183.309 81.1511 183.309 79.1533C183.309 77.1556 181.507 75.5361 179.285 75.5361C177.063 75.5361 175.261 77.1556 175.261 79.1533C175.261 81.1511 177.063 82.7706 179.285 82.7706Z" fill="#F25F3A"/>
<path d="M191.146 83.6689C193.92 83.6689 196.169 81.6472 196.169 79.1533C196.169 76.6594 193.92 74.6377 191.146 74.6377C188.371 74.6377 186.123 76.6594 186.123 79.1533C186.123 81.6472 188.371 83.6689 191.146 83.6689Z" fill="#F25F3A"/>
<path d="M206.004 84.5434C209.315 84.5434 212 82.1301 212 79.1531C212 76.176 209.315 73.7627 206.004 73.7627C202.692 73.7627 200.008 76.176 200.008 79.1531C200.008 82.1301 202.692 84.5434 206.004 84.5434Z" fill="#F25F3A"/>
<path d="M158.299 99.0836C159.533 99.0836 160.534 98.1839 160.534 97.074C160.534 95.9642 159.533 95.0645 158.299 95.0645C157.064 95.0645 156.063 95.9642 156.063 97.074C156.063 98.1839 157.064 99.0836 158.299 99.0836Z" fill="#F25F3A"/>
<path d="M164.084 105.088C165.813 105.088 167.214 103.829 167.214 102.275C167.214 100.721 165.813 99.4614 164.084 99.4614C162.356 99.4614 160.955 100.721 160.955 102.275C160.955 103.829 162.356 105.088 164.084 105.088Z" fill="#F25F3A"/>
<path d="M171.133 112.228C173.355 112.228 175.156 110.609 175.156 108.611C175.156 106.613 173.355 104.994 171.133 104.994C168.91 104.994 167.109 106.613 167.109 108.611C167.109 110.609 168.91 112.228 171.133 112.228Z" fill="#F25F3A"/>
<path d="M179.548 120.668C182.322 120.668 184.571 118.647 184.571 116.153C184.571 113.659 182.322 111.637 179.548 111.637C176.774 111.637 174.525 113.659 174.525 116.153C174.525 118.647 176.774 120.668 179.548 120.668Z" fill="#F25F3A"/>
<path d="M190.041 131C193.352 131 196.037 128.587 196.037 125.61C196.037 122.633 193.352 120.219 190.041 120.219C186.729 120.219 184.045 122.633 184.045 125.61C184.045 128.587 186.729 131 190.041 131Z" fill="#F25F3A"/>
</svg>
